CATALOG 3898347789120
PERFORMER "Wolfgang Amadeus Mozart"
TITLE "Complete Mozart Edition, Vol. 01, Early Symphonies (Disc 1) - Neville Mariner..."
FILE "·ÉÀûÆÖ.-.[ÄªÔúÌØÈ«¼¯].Symphonies(BOX1).×¨¼­.(ape)-CD1.ape" WAVE
  TRACK 01 AUDIO
    TITLE "Symphony 1 in E flat, KV 16; Allegro molto"
    PERFORMER "Wolfgang Amadeus Mozart"
    INDEX 00 00:00:00
    INDEX 01 00:00:33
  TRACK 02 AUDIO
    TITLE "Symphony 1 in E flat, KV 16; Andante"
    PERFORMER "Wolfgang Amadeus Mozart"
    INDEX 00 06:06:33
    INDEX 01 06:10:33
  TRACK 03 AUDIO
    TITLE "Symphony 1 in E flat, KV 16; Presto"
    PERFORMER "Wolfgang Amadeus Mozart"
    INDEX 00 08:57:33
    INDEX 01 08:59:58
  TRACK 04 AUDIO
    TITLE "Symphony 4 in D, KV 19; Allegro"
    PERFORMER "Wolfgang Amadeus Mozart"
    INDEX 00 11:12:58
    INDEX 01 11:22:33
  TRACK 05 AUDIO
    TITLE "Symphony 4 in D, KV 19; Andante"
    PERFORMER "Wolfgang Amadeus Mozart"
    INDEX 00 16:02:71
    INDEX 01 16:05:70
  TRACK 06 AUDIO
    TITLE "Symphony 4 in D; KV 19; Presto"
    PERFORMER "Wolfgang Amadeus Mozart"
    INDEX 00 19:24:58
    INDEX 01 19:27:08
  TRACK 07 AUDIO
    TITLE "Symphony in F, KV App. 223/19a; Allegro assai"
    PERFORMER "Wolfgang Amadeus Mozart"
    INDEX 00 21:39:33
    INDEX 01 21:47:33
  TRACK 08 AUDIO
    TITLE "Symphony in F, KV App. 223/19a; Andante"
    PERFORMER "Wolfgang Amadeus Mozart"
    INDEX 00 25:34:58
    INDEX 01 25:37:33
  TRACK 09 AUDIO
    TITLE "Symphony in F, KV App. 223/19a; Presto"
    PERFORMER "Wolfgang Amadeus Mozart"
    INDEX 00 29:18:08
    INDEX 01 29:21:08
  TRACK 10 AUDIO
    TITLE "Symphony 5 in B flat, KV 22; Allegro"
    PERFORMER "Wolfgang Amadeus Mozart"
    INDEX 00 32:02:58
    INDEX 01 32:11:33
  TRACK 11 AUDIO
    TITLE "Symphony 5 in B flat, KV 22; Andante"
    PERFORMER "Wolfgang Amadeus Mozart"
    INDEX 00 34:41:33
    INDEX 01 34:45:33
  TRACK 12 AUDIO
    TITLE "Symphony 5 in B flat, KV 22; Allegro molto"
    PERFORMER "Wolfgang Amadeus Mozart"
    INDEX 00 37:49:08
    INDEX 01 37:50:33
  TRACK 13 AUDIO
    TITLE "Symphony 6 in F, KV 43; Allegro"
    PERFORMER "Wolfgang Amadeus Mozart"
    INDEX 00 39:08:33
    INDEX 01 39:19:33
  TRACK 14 AUDIO
    TITLE "Symphony 6 in F, KV 43; Andante"
    PERFORMER "Wolfgang Amadeus Mozart"
    INDEX 00 43:43:58
    INDEX 01 43:46:58
  TRACK 15 AUDIO
    TITLE "Symphony 6 in F, KV 43; Menuetto"
    PERFORMER "Wolfgang Amadeus Mozart"
    INDEX 00 47:27:08
    INDEX 01 47:30:08
  TRACK 16 AUDIO
    TITLE "Symphony 6 in F, KV 43; Allegro"
    PERFORMER "Wolfgang Amadeus Mozart"
    INDEX 00 49:49:33
    INDEX 01 49:50:33
  TRACK 17 AUDIO
    TITLE "Symphony 7 in D, KV 45; Ouverture (Allegro)"
    PERFORMER "Wolfgang Amadeus Mozart"
    INDEX 00 52:47:70
    INDEX 01 52:56:33
  TRACK 18 AUDIO
    TITLE "Symphony 7 in D, KV 45; Andante"
    PERFORMER "Wolfgang Amadeus Mozart"
    INDEX 00 55:43:33
    INDEX 01 55:47:08
  TRACK 19 AUDIO
    TITLE "Symphony 7 in D, KV 45; Menuetto"
    PERFORMER "Wolfgang Amadeus Mozart"
    INDEX 00 58:27:58
    INDEX 01 58:30:58
  TRACK 20 AUDIO
    TITLE "Symphony 7 in D, KV 45; (Allegro)"
    PERFORMER "Wolfgang Amadeus Mozart"
    INDEX 00 62:10:08
    INDEX 01 62:13:33
